# xmcd
#
# Track frame offsets: 
#        150
#        19034
#        35054
#        51252
#        65847
#        81456
#        97500
#        117269
#        128949
#        143500
#        162803
#        171784
#        184974
#
# Disc length: 2671 seconds
#
# Revision: 0
# Processed by: cddbd v1.5.2PL0 Copyright (c) Steve Scherf et al.
# Submitted via: ExactAudioCopyFreeDBPlugin 1.0
#
DISCID=af0a6d0d
DTITLE=The Lone Bellow - Then Came The Morning
DYEAR=2015
DGENRE=Folk/Rock
TTITLE0=Then Came The Morning
TTITLE1=Fake Roses
TTITLE2=Marietta
TTITLE3=Take My Love
TTITLE4=Call To War
TTITLE5=Watch Over Us
TTITLE6=Diners
TTITLE7=Heaven Don´t Call Me Home
TTITLE8=If You Don´t Love Me
TTITLE9=Telluride
TTITLE10=To The Woods
TTITLE11=Cold As It Is
TTITLE12=I Let You Go
EXTD=
EXTT0=
EXTT1=
EXTT2=
EXTT3=
EXTT4=
EXTT5=
EXTT6=
EXTT7=
EXTT8=
EXTT9=
EXTT10=
EXTT11=
EXTT12=
PLAYORDER=
